<?xml version="1.0" encoding="iso-8859-1"?>
<!-- Generator: Adobe Illustrator 19.0.0, SVG Export Plug-In . SVG Version: 6.00 Build 0)  -->
<svg version="1.1" id="Layer_1" xmlns="http://www.w3.org/2000/svg" xmlns:xlink="http://www.w3.org/1999/xlink" x="0px" y="0px"
	 viewBox="0 0 450.36 450.36" style="enable-background:new 0 0 450.36 450.36;" xml:space="preserve">
<g>
	<path style="fill:#AFDAF9;" d="M450.36,304.105c0,41.42-33.58,75-75,75H75c-41.42,0-75-33.58-75-75
		c0-41.14,33.12-74.52,74.16-74.98c-0.02-0.6-0.05-1.2-0.05-1.81c0-11.09,2.41-21.62,6.73-31.09c0-0.01,0-0.01,0-0.01
		c6.23-13.65,16.43-25.11,29.13-32.89v88.1c-2.07,2.34-3.95,4.83-5.62,7.47c-3.1,4.89-5.31,10.06-7.05,15.57
		c2.08-3.28,4.18-6.49,6.65-9.5c1.28-1.56,2.65-3.03,4.02-4.51c2.18-2.33,4.55-4.44,7.07-6.34c5.7-4.3,12.17-7.55,18.89-9.96
		c4.35-1.57,8.99-2.4,13.58-2.9c3.03-0.33,6.05-0.16,9.08-0.22c1.15,0.09,2.32,0.14,3.47,0.27c10.19,1.12,19.89,4.78,28.29,10.64
		c2.88,2,5.6,4.33,8.06,6.82c1.83,1.85,3.42,4.46,5.73,5.74c1.81,0.99,4,1.18,5.96,0.5c2.95-1.01,4.34-3.81,5.94-6.25
		c2.49-3.82,5.42-7.3,8.54-10.62c6.35-6.76,14.1-12.27,22.44-16.3c8.12-3.93,17.15-6.62,26.17-7.41c5.46-0.49,11.06-0.58,16.51,0.04
		c8.24,0.92,16.13,3.06,23.76,6.26c9.42,3.94,18.31,9.97,25.62,17.2c0.72,0.7,1.42,1.41,2.1,2.14c1.34,1.42,2.7,2.85,3.92,4.36
		c2.2,2.71,4.23,5.49,6.3,8.3c-0.84-2.18-1.68-4.36-2.7-6.46c-1.83-3.75-3.94-7.33-6.31-10.73v-94.94
		c9.63,10.73,16.74,23.78,20.41,38.19v0.01c1.84,7.2,2.81,14.74,2.81,22.52c0,6.54-0.69,12.92-2,19.07
		c4.46-0.83,9.05-1.28,13.75-1.28C416.78,229.105,450.36,262.685,450.36,304.105z"/>
	<path style="fill:#F9DD53;" d="M340.39,86.825v158.71c-7.76-11.11-18.28-20.17-30.6-26.04c-5.37-2.56-10.96-4.63-16.76-5.99
		c-5.37-1.26-10.8-1.92-16.29-2.23c-6.76-0.39-13.78,0.3-20.38,1.72c-3.6,0.77-7.2,1.64-10.67,2.91c-4.27,1.57-8.36,3.38-12.4,5.47
		c-7.7,3.99-15.08,9.51-21.01,15.85c-1.79,1.92-3.53,3.85-5.18,5.89c-0.9,1.1-1.74,2.23-2.57,3.38c-3.18-2.8-6.61-5.32-10.24-7.5
		c-3.16-1.9-6.47-3.53-9.89-4.9c-9.1-3.62-19.32-5.44-29.12-4.65c-6.64,0.53-13.22,1.71-19.46,4.11
		c-7.84,3.01-15.28,7.41-21.39,13.22c-1.56,1.49-3.06,3.03-4.46,4.65v-120.05c0-8.6,6.98-15.57,15.57-15.57h113.24l13.82-34.74
		c2.35-5.92,8.09-9.81,14.46-9.81h57.76C333.42,71.255,340.39,78.225,340.39,86.825z"/>
	<path style="opacity:0.23;fill:#F2F2F2;enable-background:new    ;" d="M340.39,86.825v158.71c-7.76-11.11-18.28-20.17-30.6-26.04
		c-5.37-2.56-10.96-4.63-16.76-5.99c-5.37-1.26-10.8-1.92-16.29-2.23c-6.76-0.39-13.78,0.3-20.38,1.72
		c-3.6,0.77-7.2,1.64-10.67,2.91c-4.27,1.57-8.36,3.38-12.4,5.47c-7.7,3.99-15.08,9.51-21.01,15.85c-1.79,1.92-3.53,3.85-5.18,5.89
		c-0.9,1.1-1.74,2.23-2.57,3.38c-3.18-2.8-6.61-5.32-10.24-7.5l2.35-4.53l81.21-156.06l3.72-7.15h43.25
		C333.42,71.255,340.39,78.225,340.39,86.825z"/>
	<path style="fill:#8DB7CC;" d="M340.39,245.535c2.37,3.4,4.48,6.98,6.31,10.73c1.02,2.1,1.86,4.28,2.7,6.46
		c-2.07-2.81-4.1-5.59-6.3-8.3c-1.22-1.51-2.58-2.94-3.92-4.36c-7.68-8.17-17.38-15.01-27.72-19.34c-7.63-3.2-15.52-5.34-23.76-6.26
		c-5.45-0.62-11.05-0.53-16.51-0.04c-9.02,0.79-18.05,3.48-26.17,7.41c-8.34,4.03-16.09,9.54-22.44,16.3
		c-3.12,3.32-6.05,6.8-8.54,10.62c-1.6,2.44-2.99,5.24-5.94,6.25c-1.96,0.68-4.15,0.49-5.96-0.5c-2.31-1.28-3.9-3.89-5.73-5.74
		c-2.46-2.49-5.18-4.82-8.06-6.82c-8.4-5.86-18.1-9.52-28.29-10.64c-1.15-0.13-2.32-0.18-3.47-0.27c-3.03,0.06-6.05-0.11-9.08,0.22
		c-4.59,0.5-9.23,1.33-13.58,2.9c-9.69,3.48-18.86,8.7-25.96,16.3c-1.37,1.48-2.74,2.95-4.02,4.51c-2.47,3.01-4.57,6.22-6.65,9.5
		c1.74-5.51,3.95-10.68,7.05-15.57c1.67-2.64,3.55-5.13,5.62-7.47c1.4-1.62,2.9-3.16,4.46-4.65c6.11-5.81,13.55-10.21,21.39-13.22
		c6.24-2.4,12.82-3.58,19.46-4.11c9.8-0.79,20.02,1.03,29.12,4.65c7.36,2.93,14.19,7.16,20.13,12.4c0.83-1.15,1.67-2.28,2.57-3.38
		c1.65-2.04,3.39-3.97,5.18-5.89c5.93-6.34,13.31-11.86,21.01-15.85c4.04-2.09,8.13-3.9,12.4-5.47c3.47-1.27,7.07-2.14,10.67-2.91
		c6.6-1.42,13.62-2.11,20.38-1.72c5.49,0.31,10.92,0.97,16.29,2.23c5.8,1.36,11.39,3.43,16.76,5.99
		C322.11,225.365,332.63,234.425,340.39,245.535z"/>
	<g style="opacity:0.24;">
		<path style="fill:#808080;" d="M375.36,337.105c-41.42,0-258.94,0-300.36,0c-34.128,0-62.914-22.806-71.999-54.002
			C1.06,289.768,0,296.811,0,304.105c0,41.42,33.58,75,75,75s258.94,0,300.36,0s75-33.58,75-75c0-7.293-1.061-14.334-3.002-21
			C438.272,314.3,409.487,337.105,375.36,337.105z"/>
	</g>
	<path style="opacity:0.24;fill:#808080;enable-background:new    ;" d="M109.97,163.325v88.1l-4.932-22.155
		c-3.097-13.911-11.871-25.893-24.198-33.045l0,0c0-0.01,0-0.01,0-0.01C87.07,182.565,97.27,171.105,109.97,163.325z"/>
	<path style="opacity:0.24;fill:#808080;enable-background:new    ;" d="M360.8,188.785v0.01l0,0
		c-8.43,3.497-14.36,11.219-15.563,20.267l-4.847,36.473v-94.94C350.02,161.325,357.13,174.375,360.8,188.785z"/>
</g>
<g>
</g>
<g>
</g>
<g>
</g>
<g>
</g>
<g>
</g>
<g>
</g>
<g>
</g>
<g>
</g>
<g>
</g>
<g>
</g>
<g>
</g>
<g>
</g>
<g>
</g>
<g>
</g>
<g>
</g>
</svg>
